Coordinates
version=1
nRows=27
nColumns=38
inDegrees=no

Units are S.I. units (second, meters, Newtons, ...)
If the header above contains a line with 'inDegrees', this indicates whether rotational values are in degrees (yes) or radians (no).

endheader
time	pelvis_tilt	pelvis_list	pelvis_rotation	pelvis_tx	pelvis_ty	pelvis_tz	hip_flexion_r	hip_adduction_r	hip_rotation_r	knee_angle_r	ankle_angle_r	subtalar_angle_r	mtp_angle_r	hip_flexion_l	hip_adduction_l	hip_rotation_l	knee_angle_l	ankle_angle_l	subtalar_angle_l	mtp_angle_l	lumbar_extension	lumbar_bending	lumbar_rotation	arm_flex_r	arm_add_r	arm_rot_r	elbow_flex_r	pro_sup_r	wrist_flex_r	wrist_dev_r	arm_flex_l	arm_add_l	arm_rot_l	elbow_flex_l	pro_sup_l	wrist_flex_l	wrist_dev_l
1.38	1.13357	1.4411	-2.77332	0.657027	-0.166252	0.925721	-0.00758789	-0.281908	-0.139033	1.04576	-0.089994	0	0	0.421574	0.0437596	-0.284999	0.581749	0.083238	0	0	-0.0342833	-0.126655	0.0747384	-0.051255	-0.179504	0.036333	0.503943	1.23542	0	0	-0.264031	-0.239835	0.353297	0.623829	0.762149	0	0
1.39	1.14615	1.43497	-2.78184	0.658789	-0.176685	0.926535	0.0230749	-0.29158	-0.127723	1.09748	-0.141635	0	0	0.407885	0.0561362	-0.283421	0.579797	0.0911225	0	0	-0.0345706	-0.134993	0.0712274	-0.0582438	-0.177191	0.0359929	0.503017	1.22995	0	0	-0.255641	-0.245512	0.36753	0.62179	0.747802	0	0
1.4	1.14616	1.42822	-2.77826	0.660397	-0.186873	0.927788	0.0511087	-0.300818	-0.117736	1.1444	-0.193494	0	0	0.391207	0.0693067	-0.280148	0.574981	0.096407	0	0	-0.0372194	-0.143329	0.0674988	-0.0630402	-0.174616	0.0374449	0.498995	1.22521	0	0	-0.24556	-0.250641	0.381463	0.617993	0.734459	0	0
1.41	1.13313	1.42154	-2.76181	0.661892	-0.196879	0.929463	0.0758035	-0.308513	-0.10928	1.18626	-0.237518	0	0	0.37146	0.0823054	-0.274748	0.568025	0.101807	0	0	-0.0421542	-0.150767	0.0632265	-0.0662945	-0.171828	0.0394236	0.493072	1.22225	0	0	-0.234351	-0.255071	0.394584	0.613028	0.722666	0	0
1.42	1.10745	1.415	-2.73318	0.663208	-0.206765	0.931575	0.0973792	-0.31438	-0.101632	1.22476	-0.260181	0	0	0.347737	0.0942331	-0.268745	0.55795	0.107833	0	0	-0.0493355	-0.157147	0.0594765	-0.0687175	-0.16906	0.0426849	0.485726	1.21959	0	0	-0.22125	-0.260006	0.413113	0.607286	0.703437	0	0
1.43	1.03956	1.42036	-2.66483	0.664201	-0.215618	0.934786	0.113099	-0.25907	-0.0344433	1.25007	-0.251722	0	0	0.324379	0.0890251	-0.262617	0.550205	0.114011	0	0	-0.0597586	-0.147474	0.0581632	-0.068001	-0.168752	0.0453178	0.47625	1.21989	0	0	-0.202595	-0.256366	0.422669	0.59078	0.700544	0	0
1.44	0.998989	1.41732	-2.623	0.665106	-0.22522	0.937368	0.133475	-0.257491	-0.029308	1.28239	-0.234678	0	0	0.297778	0.0934534	-0.260484	0.537128	0.120374	0	0	-0.0677088	-0.14853	0.0560378	-0.0707773	-0.166622	0.0491621	0.470152	1.22166	0	0	-0.187491	-0.257544	0.436181	0.579579	0.699629	0	0
1.45	0.96646	1.41678	-2.58691	0.666122	-0.234735	0.939847	0.15461	-0.254389	-0.0289315	1.30944	-0.209618	0	0	0.273889	0.0959481	-0.256125	0.524438	0.126377	0	0	-0.0732618	-0.147583	0.050937	-0.0744293	-0.164669	0.0538483	0.466191	1.22344	0	0	-0.17508	-0.258886	0.444903	0.57377	0.700446	0	0
1.46	0.934163	1.41757	-2.55031	0.667163	-0.24417	0.942315	0.175273	-0.249825	-0.0307055	1.3305	-0.184869	0	0	0.250605	0.0969249	-0.250761	0.510972	0.131872	0	0	-0.0779517	-0.145031	0.04482	-0.0787543	-0.163051	0.0585999	0.463985	1.22443	0	0	-0.163428	-0.259387	0.450156	0.569341	0.703119	0	0
1.47	0.903302	1.41929	-2.51422	0.668259	-0.253499	0.944712	0.195935	-0.244503	-0.0341134	1.3461	-0.164959	0	0	0.228348	0.0969399	-0.244441	0.497138	0.136474	0	0	-0.081976	-0.141435	0.0380077	-0.0840599	-0.161484	0.0613881	0.463783	1.22517	0	0	-0.152193	-0.259608	0.453505	0.566728	0.707467	0	0
1.48	0.878816	1.42205	-2.48412	0.669401	-0.262669	0.946915	0.217999	-0.23897	-0.0380248	1.35702	-0.150535	0	0	0.208223	0.0962822	-0.238153	0.48341	0.140365	0	0	-0.0845494	-0.137338	0.0311178	-0.0900063	-0.159997	0.0626368	0.46482	1.22613	0	0	-0.141306	-0.259846	0.456469	0.565655	0.712179	0	0
1.49	0.856951	1.42529	-2.45583	0.6706	-0.271686	0.94897	0.240161	-0.233351	-0.0427962	1.36318	-0.140863	0	0	0.189296	0.0953819	-0.230983	0.469732	0.143625	0	0	-0.0867568	-0.132985	0.0231495	-0.0957696	-0.158442	0.0629871	0.466393	1.22701	0	0	-0.131257	-0.260045	0.4575	0.566424	0.716991	0	0
1.5	0.830152	1.42761	-2.42189	0.671874	-0.280686	0.951032	0.259928	-0.22845	-0.0486118	1.36429	-0.134753	0	0	0.168529	0.0949774	-0.223201	0.454238	0.146128	0	0	-0.0902619	-0.128773	0.0138744	-0.100902	-0.156932	0.0630581	0.467671	1.2275	0	0	-0.122422	-0.260154	0.45418	0.570444	0.722949	0	0
1.51	0.799302	1.4289	-2.38327	0.673224	-0.289661	0.953049	0.277323	-0.224925	-0.0559289	1.36077	-0.130479	0	0	0.145839	0.0950569	-0.215803	0.436624	0.147794	0	0	-0.095055	-0.124717	0.00411324	-0.10599	-0.155345	0.0611997	0.469272	1.22767	0	0	-0.11398	-0.260605	0.449359	0.577839	0.728976	0	0
1.52	0.764748	1.42964	-2.34032	0.67463	-0.298565	0.954954	0.292757	-0.222293	-0.0647186	1.35307	-0.126681	0	0	0.121903	0.0947784	-0.209593	0.417753	0.149087	0	0	-0.100754	-0.120338	-0.00646522	-0.11037	-0.153828	0.0588271	0.470378	1.22762	0	0	-0.105649	-0.260821	0.443188	0.58573	0.73613	0	0
1.53	0.728208	1.43012	-2.29482	0.67605	-0.30734	0.956725	0.306744	-0.220361	-0.0749294	1.34175	-0.122056	0	0	0.0978894	0.0937458	-0.203676	0.399321	0.150651	0	0	-0.106966	-0.115641	-0.0177609	-0.113795	-0.152169	0.0559617	0.470394	1.22795	0	0	-0.0969694	-0.261406	0.438362	0.593761	0.74246	0	0
1.54	0.688912	1.43001	-2.2466	0.677461	-0.316049	0.958384	0.318807	-0.219077	-0.0862319	1.32682	-0.115015	0	0	0.0732656	0.092262	-0.197315	0.380775	0.152155	0	0	-0.113919	-0.110679	-0.0291456	-0.116585	-0.150507	0.0529215	0.469897	1.22848	0	0	-0.0884616	-0.261876	0.432977	0.602282	0.748652	0	0
1.55	0.650281	1.42968	-2.19943	0.678844	-0.324707	0.959845	0.32977	-0.218267	-0.0981281	1.3087	-0.105153	0	0	0.0491734	0.0904329	-0.191	0.362851	0.153749	0	0	-0.120962	-0.105567	-0.0400723	-0.119202	-0.148954	0.0496546	0.469448	1.22905	0	0	-0.080061	-0.261802	0.425198	0.611636	0.757233	0	0
1.56	0.613903	1.42945	-2.1544	0.680231	-0.333283	0.961062	0.339963	-0.217853	-0.110757	1.28755	-0.0934354	0	0	0.0266949	0.0883072	-0.184196	0.346532	0.155524	0	0	-0.127656	-0.100303	-0.0513353	-0.121202	-0.147429	0.0465023	0.468318	1.22967	0	0	-0.07185	-0.261592	0.416269	0.621755	0.766819	0	0
1.57	0.5796	1.42922	-2.11161	0.681573	-0.341785	0.962073	0.349219	-0.217482	-0.1233	1.26337	-0.0812547	0	0	0.00551738	0.0860387	-0.176372	0.331453	0.157374	0	0	-0.134135	-0.094948	-0.0623131	-0.122697	-0.145872	0.0428971	0.467147	1.23171	0	0	-0.0637131	-0.261133	0.407019	0.631285	0.779753	0	0
1.58	0.550789	1.42912	-2.07474	0.682837	-0.35023	0.96284	0.3582	-0.217534	-0.135422	1.23655	-0.0683038	0	0	-0.014016	0.0840758	-0.167557	0.317685	0.159398	0	0	-0.13992	-0.0901266	-0.072647	-0.123753	-0.144296	0.0398765	0.465665	1.2336	0	0	-0.0548414	-0.26066	0.398675	0.640006	0.793342	0	0
1.59	0.523683	1.42892	-2.04056	0.683977	-0.358642	0.963429	0.366226	-0.217381	-0.146927	1.20674	-0.0551974	0	0	-0.0326263	0.0820522	-0.158676	0.305151	0.161913	0	0	-0.145552	-0.0855191	-0.081946	-0.124415	-0.142472	0.0359468	0.463309	1.23605	0	0	-0.0456841	-0.259775	0.389443	0.64791	0.810323	0	0
1.6	0.49475	1.42881	-2.0057	0.684993	-0.367064	0.96388	0.373135	-0.216279	-0.157839	1.17365	-0.043065	0	0	-0.0507398	0.07942	-0.150249	0.29354	0.165141	0	0	-0.150861	-0.080421	-0.0902285	-0.124309	-0.141031	0.0339729	0.45939	1.23758	0	0	-0.0371846	-0.259424	0.384177	0.655581	0.82224	0	0
1.61	0.469494	1.42848	-1.97551	0.685888	-0.375487	0.964158	0.379135	-0.215185	-0.167955	1.13798	-0.0326868	0	0	-0.0683727	0.0771059	-0.142621	0.282768	0.168858	0	0	-0.155982	-0.0758885	-0.0971848	-0.123999	-0.139615	0.0325825	0.454908	1.23916	0	0	-0.0283175	-0.258566	0.377628	0.664084	0.833525	0	0
1.62	0.447236	1.42778	-1.94945	0.686663	-0.383926	0.964295	0.383791	-0.21415	-0.177608	1.09966	-0.0236801	0	0	-0.0857725	0.0750993	-0.135936	0.272842	0.173027	0	0	-0.161115	-0.0718878	-0.102375	-0.123744	-0.138211	0.0312145	0.449999	1.24172	0	0	-0.0184331	-0.257626	0.373022	0.671515	0.844707	0	0
1.63	0.426158	1.42703	-1.92559	0.687348	-0.392385	0.964309	0.387214	-0.212662	-0.186887	1.05862	-0.0156813	0	0	-0.102845	0.0730579	-0.130162	0.263545	0.177556	0	0	-0.166028	-0.0679597	-0.106481	-0.123245	-0.137081	0.0300229	0.445289	1.24416	0	0	-0.00824779	-0.256264	0.369779	0.676625	0.856925	0	0
1.64	0.40814	1.42652	-1.90531	0.687975	-0.400863	0.964192	0.389727	-0.211084	-0.196503	1.01538	-0.00724334	0	0	-0.119119	0.0710924	-0.125178	0.255061	0.182274	0	0	-0.170378	-0.0642787	-0.110134	-0.12237	-0.136276	0.030042	0.440537	1.24516	0	0	0.00149083	-0.254277	0.365378	0.680826	0.871006	0	0
